<svg width="32" height="32" viewBox="0 0 32 32" fill="none" xmlns="http://www.w3.org/2000/svg">
<g id="vuesax/bold/add-circle">
<g id="add-circle">
<path id="Vector" d="M2.97925 15.9998C2.97925 8.82576 8.826 2.979 16.0001 2.979C23.1742 2.979 29.0209 8.82576 29.0209 15.9998C29.0209 23.1739 23.1742 29.0207 16.0001 29.0207C8.826 29.0207 2.97925 23.1739 2.97925 15.9998ZM17.3126 21.3332V17.3123H21.3334C22.0527 17.3123 22.6459 16.7191 22.6459 15.9998C22.6459 15.2806 22.0527 14.6873 21.3334 14.6873H17.3126V10.6665C17.3126 9.94725 16.7193 9.354 16.0001 9.354C15.2808 9.354 14.6876 9.94725 14.6876 10.6665V14.6873H10.6667C9.94749 14.6873 9.35425 15.2806 9.35425 15.9998C9.35425 16.7191 9.94749 17.3123 10.6667 17.3123H14.6876V21.3332C14.6876 22.0524 15.2808 22.6457 16.0001 22.6457C16.7193 22.6457 17.3126 22.0524 17.3126 21.3332Z" fill="#031966" stroke="#031966" stroke-width="0.625"/>
</g>
</g>
</svg>
