<svg width="26" height="24" viewBox="0 0 26 24" fill="none" xmlns="http://www.w3.org/2000/svg">
<g id="vuesax/bold/cards">
<g id="cards">
<path id="Vector" d="M16.378 6.55005H6.21972C5.91842 6.55005 5.63863 6.56005 5.38037 6.57005C2.83004 6.71005 2.1521 7.58005 2.1521 10.28V10.86C2.1521 11.41 2.63634 11.86 3.22819 11.86H19.3696C19.9614 11.86 20.4456 11.41 20.4456 10.86V10.28C20.4456 7.30005 19.6278 6.55005 16.378 6.55005Z" fill="white"/>
<path id="Vector_2" d="M3.22819 13.3601C2.63634 13.3601 2.1521 13.8101 2.1521 14.3601V17.2701C2.1521 20.2501 2.96993 21.0001 6.21972 21.0001H16.378C19.574 21.0001 20.4134 20.2801 20.4456 17.4301V14.3601C20.4456 13.8101 19.9614 13.3601 19.3696 13.3601H3.22819ZM7.48951 18.5601H5.6494C5.2082 18.5601 4.84233 18.2201 4.84233 17.8101C4.84233 17.4001 5.2082 17.0601 5.6494 17.0601H7.50027C7.94147 17.0601 8.30734 17.4001 8.30734 17.8101C8.30734 18.2201 7.94147 18.5601 7.48951 18.5601ZM13.5049 18.5601H9.80311C9.36191 18.5601 8.99604 18.2201 8.99604 17.8101C8.99604 17.4001 9.36191 17.0601 9.80311 17.0601H13.5049C13.9461 17.0601 14.3119 17.4001 14.3119 17.8101C14.3119 18.2201 13.9568 18.5601 13.5049 18.5601Z" fill="white"/>
<path id="Vector_3" d="M23.6739 13.3301V8.0901C23.6739 4.9601 21.7477 3.6001 18.8423 3.6001H9.2328C8.41497 3.6001 7.68323 3.7101 7.03758 3.9401C6.53181 4.1101 6.07986 4.3601 5.71398 4.6901C5.52029 4.8601 5.67094 5.1401 5.95072 5.1401H17.6478C20.069 5.1401 22.0275 6.9601 22.0275 9.2101V16.3801C22.0275 16.6301 22.3181 16.7701 22.5118 16.5901C23.2543 15.8601 23.6739 14.7901 23.6739 13.3301Z" fill="white"/>
</g>
</g>
</svg>
