<svg width="21" height="22" viewBox="0 0 21 22" fill="none" xmlns="http://www.w3.org/2000/svg">
<path d="M15.412 14.0755C16.6828 12.3411 17.252 10.1907 17.0057 8.05461C16.7594 5.9185 15.7157 3.95418 14.0835 2.55464C12.4512 1.15509 10.3508 0.42354 8.20247 0.506332C6.0541 0.589124 4.01621 1.48016 2.4965 3.00117C0.976791 4.52218 0.0873414 6.56099 0.00609835 8.70972C-0.0751447 10.8585 0.65781 12.9586 2.05832 14.5901C3.45884 16.2215 5.42363 17.264 7.55961 17.5088C9.69559 17.7536 11.8452 17.1828 13.5785 15.9105H13.5772C13.6165 15.963 13.6585 16.0129 13.7058 16.0615L18.7587 21.1151C19.0048 21.3614 19.3387 21.4999 19.6868 21.5C20.035 21.5001 20.3689 21.3619 20.6152 21.1158C20.8615 20.8697 20.9999 20.5358 21 20.1876C21.0001 19.8394 20.8619 19.5054 20.6158 19.2591L15.5629 14.2054C15.516 14.1579 15.4655 14.114 15.412 14.0742V14.0755ZM15.7506 9.0297C15.7506 9.97778 15.5639 10.9166 15.2011 11.7925C14.8384 12.6684 14.3066 13.4643 13.6363 14.1347C12.966 14.805 12.1703 15.3368 11.2945 15.6996C10.4187 16.0625 9.48005 16.2492 8.53211 16.2492C7.58416 16.2492 6.6455 16.0625 5.76972 15.6996C4.89393 15.3368 4.09817 14.805 3.42787 14.1347C2.75757 13.4643 2.22587 12.6684 1.8631 11.7925C1.50034 10.9166 1.31363 9.97778 1.31363 9.0297C1.31363 7.11497 2.07415 5.27866 3.42787 3.92474C4.7816 2.57083 6.61765 1.8102 8.53211 1.8102C10.4466 1.8102 12.2826 2.57083 13.6363 3.92474C14.9901 5.27866 15.7506 7.11497 15.7506 9.0297Z" fill="#332F2F"/>
</svg>
