<svg width="26" height="24" viewBox="0 0 26 24" fill="none" xmlns="http://www.w3.org/2000/svg">
<path d="M18.0781 2H15.2802C11.8368 2 9.68457 4 9.68457 7.2V11.25H16.4101C16.8513 11.25 17.2172 11.59 17.2172 12C17.2172 12.41 16.8513 12.75 16.4101 12.75H9.68457V16.8C9.68457 20 11.8368 22 15.2802 22H18.0673C21.5108 22 23.663 20 23.663 16.8V7.2C23.6738 4 21.5216 2 18.0781 2Z" fill="#FF5252"/>
<path d="M4.90738 11.25L7.13488 9.18003C7.2963 9.03003 7.37162 8.84003 7.37162 8.65003C7.37162 8.46003 7.2963 8.26003 7.13488 8.12003C6.82282 7.83003 6.30629 7.83003 5.99423 8.12003L2.38932 11.47C2.07726 11.76 2.07726 12.24 2.38932 12.53L5.99423 15.88C6.30629 16.17 6.82282 16.17 7.13488 15.88C7.44695 15.59 7.44695 15.11 7.13488 14.82L4.90738 12.75H9.68522V11.25H4.90738V11.25Z" fill="#FF5252"/>
</svg>
