<svg width="24" height="24" viewBox="0 0 24 24" fill="none" xmlns="http://www.w3.org/2000/svg">
<path d="M19.3399 14.49L18.3399 12.83C18.1299 12.46 17.9399 11.76 17.9399 11.35V8.82C17.9399 6.47 16.5599 4.44 14.5699 3.49C14.0499 2.57 13.0899 2 11.9899 2C10.8999 2 9.91994 2.59 9.39994 3.52C7.44994 4.49 6.09994 6.5 6.09994 8.82V11.35C6.09994 11.76 5.90994 12.46 5.69994 12.82L4.68994 14.49C4.28994 15.16 4.19994 15.9 4.44994 16.58C4.68994 17.25 5.25994 17.77 5.99994 18.02C7.93994 18.68 9.97994 19 12.0199 19C14.0599 19 16.0999 18.68 18.0399 18.03C18.7399 17.8 19.2799 17.27 19.5399 16.58C19.7999 15.89 19.7299 15.13 19.3399 14.49Z" fill="#031966"/>
<path d="M14.8297 20.01C14.4097 21.17 13.2997 22 11.9997 22C11.2097 22 10.4297 21.68 9.87969 21.11C9.55969 20.81 9.31969 20.41 9.17969 20C9.30969 20.02 9.43969 20.03 9.57969 20.05C9.80969 20.08 10.0497 20.11 10.2897 20.13C10.8597 20.18 11.4397 20.21 12.0197 20.21C12.5897 20.21 13.1597 20.18 13.7197 20.13C13.9297 20.11 14.1397 20.1 14.3397 20.07C14.4997 20.05 14.6597 20.03 14.8297 20.01Z" fill="#031966"/>
<rect x="8" y="1" width="12" height="12" rx="6" fill="#FE9534"/>
<path d="M15.885 7.4695C15.885 7.9105 15.8372 8.29433 15.7415 8.621C15.6482 8.94533 15.5175 9.21367 15.3495 9.426C15.1838 9.63833 14.9867 9.797 14.758 9.902C14.5317 10.0047 14.2867 10.056 14.023 10.056C13.7593 10.056 13.5143 10.0047 13.288 9.902C13.064 9.797 12.8692 9.63833 12.7035 9.426C12.5378 9.21367 12.4083 8.94533 12.315 8.621C12.2217 8.29433 12.175 7.9105 12.175 7.4695C12.175 7.02617 12.2217 6.64233 12.315 6.318C12.4083 5.99367 12.5378 5.72533 12.7035 5.513C12.8692 5.30067 13.064 5.14317 13.288 5.0405C13.5143 4.9355 13.7593 4.883 14.023 4.883C14.2867 4.883 14.5317 4.9355 14.758 5.0405C14.9867 5.14317 15.1838 5.30067 15.3495 5.513C15.5175 5.72533 15.6482 5.99367 15.7415 6.318C15.8372 6.64233 15.885 7.02617 15.885 7.4695ZM14.9925 7.4695C14.9925 7.10317 14.9657 6.79983 14.912 6.5595C14.8583 6.31917 14.786 6.12783 14.695 5.9855C14.6063 5.84317 14.5037 5.744 14.387 5.688C14.2703 5.62967 14.149 5.6005 14.023 5.6005C13.8993 5.6005 13.7792 5.62967 13.6625 5.688C13.5482 5.744 13.4467 5.84317 13.358 5.9855C13.2693 6.12783 13.1982 6.31917 13.1445 6.5595C13.0932 6.79983 13.0675 7.10317 13.0675 7.4695C13.0675 7.83583 13.0932 8.13917 13.1445 8.3795C13.1982 8.61983 13.2693 8.81117 13.358 8.9535C13.4467 9.09583 13.5482 9.19617 13.6625 9.2545C13.7792 9.3105 13.8993 9.3385 14.023 9.3385C14.149 9.3385 14.2703 9.3105 14.387 9.2545C14.5037 9.19617 14.6063 9.09583 14.695 8.9535C14.786 8.81117 14.8583 8.61983 14.912 8.3795C14.9657 8.13917 14.9925 7.83583 14.9925 7.4695Z" fill="white"/>
</svg>
