<svg width="26" height="24" viewBox="0 0 26 24" fill="none" xmlns="http://www.w3.org/2000/svg">
<g id="vuesax/bold/shopping-cart">
<g id="shopping-cart">
<path id="Vector" d="M17.4867 22.5C18.5267 22.5 19.3698 21.7165 19.3698 20.75C19.3698 19.7835 18.5267 19 17.4867 19C16.4466 19 15.6035 19.7835 15.6035 20.75C15.6035 21.7165 16.4466 22.5 17.4867 22.5Z" fill="white"/>
<path id="Vector_2" d="M8.87779 22.5C9.91783 22.5 10.7609 21.7165 10.7609 20.75C10.7609 19.7835 9.91783 19 8.87779 19C7.83775 19 6.99463 19.7835 6.99463 20.75C6.99463 21.7165 7.83775 22.5 8.87779 22.5Z" fill="white"/>
<path id="Vector_3" d="M5.20838 3.94L4.99316 6.39C4.95012 6.86 5.34827 7.25 5.85404 7.25H22.329C22.781 7.25 23.1576 6.93 23.1899 6.51C23.3298 4.74 21.877 3.3 19.9724 3.3H6.74719C6.63958 2.86 6.42437 2.44 6.09078 2.09C5.55273 1.56 4.79947 1.25 4.02468 1.25H2.15228C1.71109 1.25 1.34521 1.59 1.34521 2C1.34521 2.41 1.71109 2.75 2.15228 2.75H4.02468C4.35827 2.75 4.67034 2.88 4.89632 3.1C5.1223 3.33 5.2299 3.63 5.20838 3.94Z" fill="white"/>
<path id="Vector_4" d="M22.0705 8.75H5.56328C5.11132 8.75 4.74545 9.07 4.70241 9.48L4.31502 13.83C4.16436 15.54 5.60633 17 7.44644 17H19.4126C21.0267 17 22.4472 15.77 22.5655 14.27L22.9206 9.6C22.9637 9.14 22.5763 8.75 22.0705 8.75Z" fill="white"/>
</g>
</g>
</svg>
