<svg width="17" height="18" viewBox="0 0 17 18" fill="none" xmlns="http://www.w3.org/2000/svg">
<path d="M3.92059 11.7317C3.99572 11.3971 3.85913 10.919 3.62011 10.68L1.96059 9.02047C1.44157 8.50145 1.23669 7.94828 1.38694 7.47023C1.54401 6.99218 2.02889 6.66437 2.75279 6.54145L4.88352 6.18633C5.19084 6.13169 5.56645 5.85852 5.70986 5.57852L6.8845 3.22242C7.22596 2.54633 7.69035 2.17072 8.19572 2.17072C8.70108 2.17072 9.16547 2.54633 9.50694 3.22242L10.6816 5.57852C10.7704 5.75608 10.9547 5.92681 11.1528 6.04291L3.79767 13.398C3.70206 13.4936 3.53816 13.4049 3.56547 13.2683L3.92059 11.7317Z" fill="#FFE604"/>
<path d="M12.7702 10.68C12.5243 10.9259 12.3878 11.3971 12.4697 11.7317L12.9409 13.7873C13.139 14.641 13.016 15.2829 12.5926 15.5903C12.4219 15.7132 12.217 15.7746 11.978 15.7746C11.6297 15.7746 11.2199 15.6449 10.7692 15.3786L8.76824 14.1903C8.4541 14.0059 7.93507 14.0059 7.62092 14.1903L5.61995 15.3786C4.8619 15.8225 4.21312 15.8976 3.79653 15.5903C3.63946 15.4742 3.52336 15.3171 3.44824 15.1122L11.7526 6.80782C12.0668 6.49367 12.5107 6.35026 12.9409 6.42538L13.6307 6.54148C14.3546 6.6644 14.8395 6.99221 14.9965 7.47026C15.1468 7.94831 14.9419 8.50148 14.4229 9.0205L12.7702 10.68Z" fill="#FFE604"/>
</svg>
