<svg width="17" height="18" viewBox="0 0 17 18" fill="none" xmlns="http://www.w3.org/2000/svg">
<path d="M4.06708 11.7317C4.1422 11.3971 4.00562 10.919 3.76659 10.68L2.10708 9.02047C1.58805 8.50145 1.38318 7.94828 1.53342 7.47023C1.69049 6.99218 2.17537 6.66437 2.89927 6.54145L5.03001 6.18633C5.33732 6.13169 5.71293 5.85852 5.85635 5.57852L7.03098 3.22242C7.37244 2.54633 7.83683 2.17072 8.3422 2.17072C8.84757 2.17072 9.31196 2.54633 9.65342 3.22242L10.8281 5.57852C10.9168 5.75608 11.1012 5.92681 11.2993 6.04291L3.94415 13.398C3.84854 13.4936 3.68464 13.4049 3.71196 13.2683L4.06708 11.7317Z" fill="#636267"/>
<path d="M12.9167 10.68C12.6708 10.9259 12.5342 11.3971 12.6162 11.7317L13.0874 13.7873C13.2855 14.641 13.1625 15.2829 12.7391 15.5903C12.5684 15.7132 12.3635 15.7746 12.1245 15.7746C11.7762 15.7746 11.3664 15.6449 10.9157 15.3786L8.91473 14.1903C8.60058 14.0059 8.08156 14.0059 7.76741 14.1903L5.76643 15.3786C5.00838 15.8225 4.3596 15.8976 3.94302 15.5903C3.78595 15.4742 3.66985 15.3171 3.59473 15.1122L11.8991 6.80782C12.2133 6.49367 12.6572 6.35026 13.0874 6.42538L13.7772 6.54148C14.5011 6.6644 14.9859 6.99221 15.143 7.47026C15.2933 7.94831 15.0884 8.50148 14.5694 9.0205L12.9167 10.68Z" fill="#636267"/>
</svg>
